<?xml version="1.0" standalone="no"?>
<!DOCTYPE svg PUBLIC "-//W3C//DTD SVG 20010904//EN"
 "http://www.w3.org/TR/2001/REC-SVG-20010904/DTD/svg10.dtd">
<svg version="1.0" xmlns="http://www.w3.org/2000/svg"
 width="100.000000pt" height="100.000000pt" viewBox="0 0 100.000000 100.000000"
 preserveAspectRatio="xMidYMid meet">
<metadata>
Created by potrace 1.16, written by Peter Selinger 2001-2019
</metadata>
<g transform="translate(0.000000,100.000000) scale(0.010225,-0.010215)"
fill="#000000" stroke="none">
<path d="M4600 8399 c-19 -5 -66 -9 -105 -8 -117 1 -127 0 -119 -13 5 -8 0 -9
-17 -4 -68 19 -77 18 -149 -19 -41 -20 -87 -38 -104 -40 -58 -7 -95 -20 -120
-42 -20 -18 -38 -23 -80 -23 -54 0 -104 -21 -264 -111 -45 -25 -122 -92 -122
-106 0 -17 -92 -103 -111 -103 -6 0 -17 -6 -25 -14 -7 -8 -22 -12 -32 -9 -13
3 -25 -5 -37 -24 -25 -37 -82 -91 -106 -98 -12 -4 -19 -16 -19 -31 0 -24 -50
-84 -70 -84 -6 0 -10 -8 -10 -18 0 -10 -11 -29 -25 -42 -13 -12 -22 -27 -19
-31 2 -5 -4 -14 -16 -21 -11 -7 -20 -23 -20 -35 0 -14 -6 -23 -16 -23 -10 0
-14 -6 -10 -15 3 -8 -3 -20 -12 -27 -21 -15 -42 -61 -42 -89 0 -11 -18 -38
-40 -59 -22 -21 -40 -45 -40 -53 0 -8 -7 -28 -15 -43 -8 -16 -12 -37 -9 -46 3
-9 -9 -44 -26 -77 -17 -34 -30 -73 -29 -89 1 -28 -23 -106 -48 -155 -8 -15
-11 -31 -8 -37 3 -5 -1 -20 -9 -33 -13 -19 -14 -29 -4 -54 9 -25 9 -37 0 -55
-7 -13 -12 -36 -11 -53 1 -16 0 -96 -1 -178 0 -81 1 -151 5 -156 3 -6 0 -31
-6 -56 -10 -38 -9 -55 6 -101 9 -31 16 -72 15 -92 -8 -152 6 -379 30 -482 10
-39 12 -100 8 -180 -3 -68 9 -100 49 -135 44 -37 56 -70 69 -185 7 -61 8 -63
15 -30 4 19 3 55 -2 80 -5 25 -11 94 -13 153 -2 59 -9 114 -15 121 -6 7 -8 15
-5 19 3 3 6 99 6 214 1 158 -2 215 -12 233 -8 14 -13 34 -12 45 2 11 -4 39
-12 63 -8 23 -13 48 -10 56 3 7 -2 34 -11 60 -9 26 -14 55 -10 65 3 10 -2 37
-10 61 -8 23 -15 57 -15 74 -1 17 -7 42 -14 55 -14 26 -10 58 11 79 15 16 18
128 3 137 -7 4 -6 13 1 27 7 13 9 43 6 75 -4 36 0 78 13 126 10 40 21 90 25
112 6 36 52 155 76 195 5 8 18 33 30 55 12 22 25 42 30 45 4 3 21 35 38 72 16
37 37 75 46 86 56 65 124 130 143 136 11 4 24 16 27 26 7 21 47 36 64 25 6 -3
11 -2 11 4 0 5 -5 11 -11 13 -24 8 23 38 59 38 20 0 46 7 56 15 29 22 42 18
21 -5 -24 -27 -13 -25 33 4 20 14 48 27 62 30 14 3 43 10 65 16 22 6 56 13 75
15 50 7 94 17 104 22 18 11 86 11 86 1 0 -6 3 -8 7 -5 3 4 12 2 20 -5 10 -8
17 -8 25 0 11 11 0 20 -34 26 -7 1 -26 10 -43 19 -26 16 -27 17 -5 11 14 -4
35 -7 46 -6 12 1 27 -5 34 -13 7 -8 29 -15 49 -15 20 0 51 -4 69 -9 32 -10 90
8 75 22 -3 4 -1 7 5 7 6 0 17 -7 26 -15 16 -17 41 -21 31 -5 -10 16 43 23 68
9 12 -8 38 -14 57 -13 19 0 38 -5 42 -10 5 -8 8 -7 8 1 0 7 -8 17 -17 22 -14
8 -10 10 23 11 27 0 50 -7 67 -20 33 -26 50 -26 42 1 -6 19 -4 20 27 14 18 -4
41 -18 51 -30 14 -19 23 -22 41 -16 29 12 82 7 101 -9 23 -19 18 4 -6 26 -16
15 -22 16 -29 4 -7 -11 -11 -10 -25 4 -10 9 -14 20 -11 24 4 3 11 0 16 -8 7
-11 11 -11 23 -1 12 9 16 9 19 -1 4 -10 10 -10 32 0 22 10 28 9 33 -3 4 -13 8
-13 21 -3 8 7 20 13 26 13 6 1 19 5 29 9 13 6 23 2 39 -15 14 -16 22 -20 25
-11 7 18 23 15 23 -4 0 -13 3 -14 15 -4 8 6 23 9 35 5 12 -4 30 0 44 9 17 11
26 12 35 3 8 -8 14 -8 23 1 14 14 48 -2 48 -23 0 -9 10 -15 24 -15 13 0 26 -6
29 -12 3 -9 10 -8 26 6 18 16 21 17 21 3 0 -9 8 -16 18 -16 9 1 28 -2 42 -6
20 -5 22 -5 10 5 -13 10 -12 11 3 6 10 -3 23 -6 28 -6 18 0 8 -18 -13 -24 -23
-6 -23 -6 8 -34 33 -29 62 -90 31 -64 -20 17 -37 7 -37 -22 0 -12 -5 -27 -12
-34 -9 -9 -8 -16 5 -30 22 -25 21 -44 -3 -62 -24 -17 -26 -36 -4 -48 22 -12
10 -32 -15 -25 -10 3 -22 0 -25 -6 -4 -6 -2 -11 4 -11 7 0 10 -7 6 -15 -4 -11
2 -15 22 -16 21 -1 22 -2 7 -6 -11 -3 -26 -10 -32 -15 -9 -7 -13 -7 -13 1 0 7
-5 9 -11 6 -14 -9 -8 -66 9 -84 10 -10 16 -11 25 -2 15 15 27 14 27 -4 0 -9
-11 -20 -25 -25 -14 -5 -25 -16 -25 -24 0 -8 -5 -16 -11 -18 -7 -2 -8 -17 -4
-40 6 -34 9 -36 40 -33 27 2 32 0 28 -15 -3 -12 -12 -16 -29 -12 -20 4 -24 0
-24 -20 0 -19 5 -24 23 -24 16 1 22 -5 22 -19 0 -11 8 -21 18 -23 9 -2 17 -10
17 -17 0 -8 10 -15 23 -17 14 -2 23 -11 25 -25 2 -13 10 -23 18 -23 17 0 18
12 2 28 -8 8 -9 12 -1 12 25 0 45 -33 39 -64 -4 -22 -3 -27 4 -16 6 10 10 11
10 3 0 -7 6 -13 13 -13 7 0 14 -12 15 -26 2 -31 16 -51 40 -57 9 -2 5 -3 -10
-2 -26 1 -28 -1 -28 -36 0 -30 3 -37 15 -33 8 4 15 1 15 -5 0 -22 -31 -10 -42
17 -11 26 -12 27 -16 4 -2 -13 4 -34 12 -47 16 -24 15 -26 -14 -53 -16 -16
-30 -32 -30 -35 0 -3 17 -5 37 -4 23 1 38 -3 41 -12 3 -8 0 -11 -7 -7 -7 5
-11 -3 -11 -23 0 -17 -4 -31 -10 -31 -5 0 -10 14 -10 31 0 20 -4 29 -12 26 -7
-2 -12 -10 -10 -16 1 -6 -2 -11 -8 -11 -5 0 -10 5 -10 12 0 6 -3 8 -6 5 -4 -4
-1 -13 6 -22 10 -13 9 -15 -9 -15 -22 0 -29 -16 -10 -22 6 -2 -1 -10 -15 -18
-38 -20 -59 4 -60 67 -1 41 2 48 24 55 25 7 24 8 -2 4 -19 -2 -28 1 -28 10 0
8 -10 14 -22 13 -13 0 -17 -3 -10 -6 14 -6 17 -63 2 -63 -5 0 -10 8 -10 18 -1
11 -6 6 -15 -13 -11 -24 -14 -26 -15 -10 l-1 20 -8 -20 c-5 -11 -4 -21 0 -23
5 -2 9 -10 9 -18 0 -9 -5 -12 -10 -9 -6 3 -13 -1 -16 -9 -8 -20 -24 -21 -24
-1 0 8 -4 15 -9 15 -9 0 -10 -11 -13 -77 -1 -31 -18 -38 -18 -7 0 9 -10 14
-27 13 -16 0 -22 -3 -15 -6 6 -2 12 -12 12 -20 0 -13 -2 -13 -17 -2 -13 11
-17 11 -20 2 -3 -7 -11 -13 -19 -13 -10 0 -12 -9 -8 -32 5 -28 4 -31 -8 -17
-19 23 -38 12 -38 -23 0 -25 -3 -29 -20 -25 -17 4 -20 0 -20 -26 -1 -29 -2
-30 -14 -14 -16 21 -26 22 -26 1 0 -8 -5 -12 -11 -9 -15 10 -49 -33 -42 -52 5
-12 2 -15 -13 -11 -11 3 -25 -1 -32 -9 -12 -12 -8 -17 12 -14 5 1 6 -5 2 -14
-3 -9 -6 -21 -6 -27 0 -5 -8 -2 -17 8 -17 17 -18 17 -21 -5 -3 -17 -9 -22 -23
-18 -24 6 -35 -9 -19 -28 6 -8 9 -19 5 -25 -4 -6 -2 -17 4 -24 6 -8 11 -29 11
-47 -1 -72 0 -82 10 -94 11 -13 9 -115 -2 -115 -7 0 -8 -12 -9 -90 0 -19 -3
-42 -6 -50 -3 -8 -7 -49 -9 -90 -1 -41 -3 -86 -4 -99 -1 -13 2 -26 7 -30 7 -5
9 -36 5 -84 -1 -10 -7 -15 -13 -12 -12 8 -2 -63 12 -80 4 -6 8 -29 7 -52 0
-23 7 -56 16 -74 9 -17 16 -41 16 -52 0 -11 10 -29 23 -41 12 -12 36 -39 54
-60 17 -20 40 -39 50 -40 12 -2 19 -12 20 -32 1 -20 0 -22 -4 -6 -2 12 -9 22
-14 22 -11 0 -12 -63 0 -75 4 -6 6 -27 4 -47 -5 -33 -8 -37 -28 -32 -17 4 -30
-3 -54 -28 -17 -18 -31 -36 -31 -40 0 -5 -9 -17 -19 -27 -14 -14 -22 -16 -30
-8 -8 8 -11 8 -11 -2 0 -13 -24 -41 -35 -41 -4 0 -15 -10 -25 -22 -13 -17 -15
-27 -8 -35 7 -9 7 -13 -3 -13 -10 0 -10 -3 -1 -12 7 -7 12 -20 12 -29 0 -10 9
-21 20 -24 22 -7 27 -24 8 -26 -7 -1 -40 -3 -73 -4 -33 -1 -71 -7 -84 -14 -13
-7 -21 -8 -17 -3 8 14 -4 43 -15 36 -5 -3 -7 -10 -4 -15 10 -14 -12 -10 -28 6
-16 16 -28 10 -21 -10 7 -17 -14 -29 -29 -17 -7 6 -16 10 -20 10 -18 0 -15 8
3 9 11 1 20 -3 20 -8 0 -6 5 -7 10 -4 7 4 6 13 -1 26 -8 16 -13 18 -24 9 -10
-8 -19 -8 -35 0 -12 6 -30 8 -43 4 -12 -5 -25 -7 -29 -6 -4 1 -11 -10 -14 -26
-4 -15 -15 -38 -26 -51 -10 -13 -18 -31 -18 -40 0 -9 -10 -1 -22 19 -17 27
-23 31 -26 18 -2 -10 -8 -18 -14 -18 -6 0 -7 -7 -3 -17 10 -22 13 -93 4 -88
-3 2 -6 -9 -6 -25 0 -36 5 -38 17 -7 l9 22 0 -22 c1 -12 -5 -28 -12 -35 -8 -7
-12 -22 -10 -33 4 -15 2 -17 -5 -6 -5 7 -9 31 -8 52 1 22 -1 39 -6 39 -14 0
-9 28 8 44 8 9 11 16 6 16 -6 0 -9 19 -7 43 2 30 -2 44 -10 44 -9 0 -10 -8 -5
-29 5 -16 5 -28 -1 -28 -5 0 -9 -11 -9 -23 0 -13 -9 -32 -20 -42 -24 -22 -27
-43 -3 -24 15 12 16 12 10 -3 -3 -10 -3 -18 2 -18 8 0 11 -16 12 -57 1 -13 7
-23 16 -23 8 0 11 -5 7 -12 -11 -17 -12 -68 -2 -62 4 3 13 14 19 26 8 15 8 19
0 14 -6 -4 -11 0 -11 9 0 8 7 18 15 21 10 4 13 13 10 25 -4 11 -2 19 6 19 7 0
10 -10 6 -29 -3 -15 -1 -33 6 -40 14 -14 27 -14 27 0 0 5 -4 7 -10 4 -6 -3 -7
1 -4 9 3 9 10 13 15 10 5 -3 9 5 10 18 l0 23 12 -23 c8 -17 8 -25 -1 -31 -6
-4 -8 -12 -3 -20 7 -10 9 -9 14 3 10 25 37 20 36 -6 0 -22 -1 -22 -9 -3 -8 19
-9 19 -9 -2 -1 -13 4 -23 10 -23 5 0 8 -3 5 -8 -2 -4 2 -15 9 -25 8 -11 16
-14 19 -8 4 6 13 8 21 4 8 -3 15 0 15 6 0 6 -4 11 -10 11 -13 0 -13 41 1 60 8
11 9 6 4 -20 -5 -26 -4 -31 4 -20 9 12 11 10 11 -12 0 -16 3 -28 8 -28 4 -1
18 -10 31 -21 21 -17 22 -22 10 -29 -7 -5 -25 -7 -38 -5 -14 2 -30 0 -36 -5
-12 -10 -45 -18 -79 -19 -15 -1 -16 -4 -7 -15 9 -11 7 -15 -13 -20 -13 -3 -32
-9 -43 -12 -13 -4 -11 0 7 15 l25 21 -31 -6 c-21 -4 -36 -1 -47 11 -10 9 -17
13 -18 8 0 -4 -6 10 -14 32 -8 25 -14 33 -15 20 -1 -19 -2 -19 -9 -2 -4 10
-11 17 -16 15 -6 -2 -13 11 -16 27 l-7 30 -1 -35 c-1 -27 -4 -31 -11 -20 -8
13 -10 12 -10 -2 0 -10 -7 -18 -15 -18 -8 0 -15 -6 -15 -14 0 -8 -4 -17 -9
-20 -4 -3 -7 7 -5 22 2 15 -1 37 -8 49 -10 21 -12 21 -24 5 -7 -9 -14 -30 -14
-47 0 -23 -3 -27 -10 -15 -8 12 -10 9 -10 -12 0 -16 -3 -28 -8 -28 -12 0 -7
73 7 100 l14 25 -22 -19 c-11 -11 -21 -29 -22 -40 0 -12 -3 -15 -6 -8 -10 25
-23 11 -24 -25 -1 -36 -1 -37 -9 -11 -4 15 -15 34 -22 42 -13 12 -17 10 -32
-17 l-17 -32 19 22 c19 21 20 21 25 4 3 -13 -2 -21 -14 -24 -12 -3 -17 -11
-13 -21 5 -14 8 -14 21 -1 8 8 17 15 20 15 10 0 -7 -64 -20 -72 -19 -12 -27
-9 -21 7 4 8 1 22 -6 30 -24 29 -35 16 -35 -40 0 -30 3 -55 6 -55 3 0 20 13
39 30 18 16 37 27 43 23 6 -3 7 -1 3 6 -9 14 2 51 15 51 5 0 7 -11 3 -24 -3
-13 -1 -27 5 -30 6 -4 11 -12 11 -17 0 -6 -4 -7 -10 -4 -5 3 -10 -2 -10 -12
-1 -17 -1 -17 -11 -1 -9 16 -11 16 -31 0 -54 -43 -68 -65 -68 -105 0 -31 3
-38 15 -33 11 4 15 -1 15 -19 0 -14 5 -25 11 -25 6 0 1 -8 -12 -19 -21 -17
-22 -21 -9 -36 13 -15 12 -19 -9 -36 -13 -11 -32 -19 -42 -19 -10 0 -19 -5
-19 -11 0 -6 7 -9 15 -5 13 5 14 2 4 -17 -9 -18 -7 -18 16 6 14 15 30 25 36
22 5 -4 9 -1 9 6 0 7 3 10 6 7 3 -4 -2 -20 -11 -38 -9 -18 -14 -34 -12 -37 3
-2 10 5 17 16 10 19 13 20 25 7 17 -17 20 -30 5 -21 -5 3 -10 1 -10 -4 0 -11
11 -14 27 -8 5 1 7 5 6 10 -2 4 2 7 7 7 6 0 10 -5 10 -11 0 -5 4 -8 9 -5 5 3
7 15 4 26 -4 15 0 20 13 20 15 0 16 2 5 9 -8 6 -10 14 -5 22 12 20 14 39 3 39
-5 0 -9 8 -9 18 0 12 2 14 8 4 5 -7 16 -10 25 -6 12 4 17 1 17 -14 0 -41 28
-32 51 16 28 58 36 64 75 57 17 -3 44 0 60 6 16 6 55 11 87 10 31 -1 57 2 57
5 0 4 -9 22 -21 41 -12 19 -23 58 -26 93 -6 57 -5 60 21 69 28 11 69 1 97 -25
14 -13 17 -10 28 26 6 22 15 41 19 41 44 7 79 3 109 -13 l36 -20 25 27 c21 23
30 26 60 20 20 -4 47 -15 61 -26 19 -15 26 -17 33 -7 6 10 8 9 8 -3 0 -9 7
-19 15 -23 8 -3 15 -12 15 -21 0 -8 5 -15 11 -15 5 0 7 -5 4 -10 -4 -6 -2 -16
3 -23 5 -7 12 -21 16 -32 3 -11 4 -7 2 9 -11 87 41 132 129 112 11 -2 27 -5
35 -5 13 -1 13 -2 0 -11 -10 -6 -11 -10 -2 -10 6 0 12 -6 12 -14 0 -8 6 -17
13 -19 9 -4 9 -8 -2 -15 -9 -7 -10 -12 -2 -16 17 -11 13 -26 -6 -27 -11 0 -13
-3 -5 -6 6 -2 12 -9 12 -15 0 -6 -6 -8 -14 -5 -8 3 -16 -2 -19 -14 -3 -10 -13
-19 -22 -19 -9 0 -23 -7 -31 -15 -22 -21 -54 -19 -82 8 -14 12 -22 17 -18 10
3 -7 -1 -14 -11 -16 -176 -47 -208 -45 -220 13 l-6 31 -21 -20 c-36 -34 -97
-31 -131 5 l-24 26 -7 -26 c-3 -14 -12 -30 -20 -37 -15 -12 -19 -30 -6 -27 4
1 43 -2 87 -7 90 -9 285 -13 280 -5 -2 3 34 6 80 7 45 1 111 7 146 12 81 14
156 14 164 1 3 -5 1 -18 -5 -29 -6 -12 -6 -22 -1 -25 5 -4 12 0 14 6 4 9 6 7
6 -3 1 -19 -22 -41 -41 -38 -39 5 -70 -2 -65 -14 3 -8 1 -20 -4 -28 -8 -12
-10 -12 -18 0 -7 11 -9 11 -14 0 -3 -8 -6 -4 -6 9 -1 12 -6 22 -12 22 -6 0 -8
-8 -4 -19 3 -11 0 -23 -6 -27 -9 -5 -10 -2 -6 9 4 11 1 17 -9 17 -8 0 -12 -4
-9 -10 3 -5 3 -15 -1 -22 -5 -8 -12 -2 -20 17 l-13 30 -2 -45 c-1 -25 -3 -37
-6 -27 -6 24 -28 21 -41 -5 l-11 -23 -7 23 c-3 12 -10 22 -14 22 -4 0 -5 12
-2 28 5 25 4 26 -13 12 -17 -13 -18 -13 -10 0 8 13 6 13 -7 2 -9 -8 -14 -20
-11 -28 3 -8 0 -14 -6 -14 -6 0 -11 9 -11 21 0 11 -4 17 -10 14 -5 -3 -10 -17
-10 -30 0 -13 5 -27 10 -30 6 -3 10 -1 10 5 0 7 6 10 14 7 10 -4 16 2 19 16 3
15 5 11 6 -11 0 -18 -3 -31 -8 -27 -5 3 -13 1 -16 -5 -4 -6 -14 -10 -23 -9
-49 4 -57 -19 -20 -58 21 -22 21 -24 3 -17 -11 4 -26 14 -34 23 -11 14 -13 12
-8 -14 2 -16 8 -39 12 -50 8 -18 7 -18 -8 -6 -11 8 -17 29 -18 55 0 22 -3 35
-6 28 -2 -6 -8 -10 -12 -8 -14 9 2 -69 18 -88 9 -11 10 -16 4 -12 -20 11 -16
-2 13 -42 15 -22 17 -27 5 -13 l-21 23 -1 -23 c0 -22 -1 -23 -8 -4 -5 11 -6
25 -4 31 2 7 -1 15 -6 19 -6 3 -9 10 -6 15 3 4 -2 14 -11 21 -14 11 -20 8 -45
-21 -16 -19 -29 -30 -29 -25 0 6 -5 2 -11 -7 -5 -10 -18 -18 -27 -18 -15 -1
-14 -3 3 -16 19 -15 18 -15 -20 -10 -28 4 -33 3 -15 -3 14 -4 24 -13 23 -19
-4 -15 3 -15 30 -1 21 11 21 10 -2 -11 -20 -20 -21 -25 -9 -34 12 -9 11 -13
-3 -28 -17 -16 -29 -14 -29 4 0 4 8 8 17 8 9 0 14 3 10 6 -3 3 -15 3 -27 -1
-15 -5 -18 -10 -11 -18 10 -13 -9 -47 -26 -47 -6 0 -13 -9 -16 -20 -3 -11 -1
-20 4 -20 5 0 9 -7 9 -15 0 -11 8 -13 33 -8 17 3 40 10 50 15 15 8 17 5 13
-19 -2 -15 -5 -31 -5 -35 -1 -11 -39 -10 -43 1 -1 5 -9 3 -16 -5 -11 -12 -9
-14 8 -14 13 0 19 -4 14 -11 -4 -8 1 -9 17 -5 23 7 23 6 -4 -14 -15 -12 -25
-26 -21 -31 3 -5 0 -9 -5 -9 -6 0 -11 -5 -11 -11 0 -19 68 45 70 66 2 17 3 18
7 2 2 -9 9 -15 14 -11 5 3 6 10 3 16 -4 6 1 6 14 -1 11 -6 22 -18 26 -28 5
-15 4 -15 -9 1 -14 18 -15 18 -15 2 0 -9 -4 -15 -8 -12 -5 3 -9 -1 -9 -8 0 -8
6 -12 14 -9 9 4 11 0 7 -13 -5 -17 -5 -17 6 -2 6 9 17 15 24 12 8 -3 17 -1 21
5 13 22 23 10 20 -24 -3 -30 -1 -35 19 -35 15 0 22 -6 23 -20 1 -11 -2 -18 -7
-15 -5 3 -11 -8 -15 -25 -4 -16 -11 -30 -17 -30 -6 0 -7 -7 -4 -15 3 -8 9 -22
12 -30 3 -8 1 -15 -5 -15 -6 0 -11 7 -11 15 0 12 -5 11 -30 -3 -16 -9 -30 -22
-30 -28 0 -7 -6 -14 -14 -17 -9 -4 -12 -14 -9 -26 3 -12 1 -21 -4 -21 -18 0
-22 13 -12 32 13 24 5 35 -14 20 -8 -7 -17 -9 -20 -5 -4 3 1 12 11 20 9 8 11
11 3 7 -10 -5 -11 -1 -6 17 l7 24 -21 -24 c-12 -14 -19 -31 -17 -38 4 -11 1
-11 -15 -3 -11 7 -17 16 -12 23 4 7 -1 6 -11 -2 -9 -8 -15 -20 -12 -26 3 -8
-4 -12 -19 -11 -26 1 -22 12 12 39 13 10 22 26 22 35 -1 15 -2 15 -6 0 -5 -21
-19 -23 -27 -5 -5 10 -7 10 -12 0 -3 -7 -10 -13 -15 -13 -5 0 0 14 13 30 21
29 57 44 42 18 -5 -10 -3 -10 7 0 12 11 12 14 -1 22 -20 13 -43 13 -35 0 3 -5
1 -10 -4 -10 -6 0 -11 5 -11 11 0 5 -4 7 -10 4 -6 -3 -10 0 -10 7 0 7 -10 2
-21 -12 l-21 -25 6 28 c6 26 6 27 -14 10 -11 -10 -20 -22 -20 -28 0 -5 5 -3
10 5 12 18 12 2 0 -25 -6 -13 -9 -15 -9 -5 -1 8 -10 0 -21 -17 -11 -18 -23
-33 -26 -33 -4 0 -1 7 6 15 9 10 9 15 1 15 -10 0 -12 -6 -11 -25 2 -16 -37
-65 -50 -65 -12 0 -12 2 -1 9 10 7 11 13 1 30 -8 17 -8 26 0 36 8 9 8 15 0 20
-7 4 -7 12 0 26 8 14 8 24 0 37 -9 13 -10 13 -7 1 7 -22 -8 -43 -26 -36 -16 6
-17 23 -4 45 11 16 47 16 47 0 0 -9 4 -8 10 2 5 8 10 11 10 6 0 -11 29 25 30
37 0 4 -4 7 -10 7 -5 0 -10 -6 -10 -14 0 -8 -7 -17 -16 -20 -12 -4 -15 -2 -10
9 3 8 1 15 -3 15 -5 0 -12 -6 -14 -12 -4 -10 -6 -10 -6 0 -1 9 -7 9 -24 -3
-13 -8 -28 -12 -32 -8 -5 5 -4 1 2 -7 9 -11 8 -20 -3 -34 -8 -11 -14 -14 -14
-7 0 7 -4 9 -10 6 -14 -9 -12 8 3 24 10 11 8 11 -13 1 -14 -7 -36 -21 -49 -31
-35 -28 -48 -23 -17 6 15 14 26 25 24 25 -2 0 -25 -7 -51 -15 -26 -8 -45 -10
-42 -5 3 5 1 11 -5 15 -13 8 -13 25 1 25 5 0 7 -5 3 -12 -4 -7 -3 -8 4 -4 6 4
9 13 6 20 -3 9 1 13 12 13 22 -2 27 14 11 37 -11 15 -18 17 -33 8 -17 -10 -17
-11 -1 -12 9 0 17 -4 17 -10 0 -19 -19 -10 -40 20 -12 17 -27 30 -33 30 -7 0
-6 -4 3 -10 12 -8 11 -11 -8 -16 -17 -5 -20 -9 -11 -15 8 -4 10 -11 7 -14 -14
-14 -28 7 -28 41 0 19 -5 34 -11 34 -7 0 -9 10 -5 25 6 23 4 25 -28 25 -28 0
-37 -5 -47 -29 -10 -21 -16 -26 -25 -17 -9 8 -7 15 9 30 13 13 16 21 9 24 -7
2 -9 8 -6 14 7 10 -10 8 -63 -7 -10 -4 2 4 27 17 25 12 50 27 55 34 6 6 17 14
25 17 8 3 2 6 -14 6 -24 1 -26 3 -16 16 6 8 9 19 5 25 -3 5 -1 10 5 10 6 0 8
4 5 10 -3 6 1 7 9 4 9 -3 16 -2 16 4 0 5 -9 12 -20 15 -23 6 -27 35 -5 43 8 4
12 10 9 16 -3 5 -12 4 -20 -3 -11 -9 -18 -9 -27 0 -8 8 -6 15 11 27 18 12 20
19 12 35 -9 16 -7 19 14 19 13 0 26 -6 29 -12 2 -7 2 -3 0 10 -2 15 2 22 12
22 10 0 15 10 15 33 0 46 -7 50 -45 21 l-32 -24 5 25 c2 14 10 25 17 25 7 0
18 6 24 13 8 10 7 14 -4 14 -8 0 -15 -4 -15 -9 0 -4 -11 -8 -24 -8 -13 0 -27
-6 -29 -12 -3 -8 -6 -6 -6 5 -1 10 -9 17 -21 17 -25 0 -27 20 -2 21 10 0 12 3
4 6 -6 2 -9 10 -5 16 3 7 -4 3 -18 -8 -13 -11 -26 -21 -28 -22 -9 -6 34 -32
46 -28 6 2 13 -5 16 -15 3 -13 -1 -21 -14 -25 -24 -8 -40 1 -33 19 3 9 -3 11
-26 8 -25 -3 -29 -1 -24 12 3 9 2 16 -4 16 -5 0 -12 -6 -15 -14 -7 -17 41 -56
59 -49 8 3 14 0 14 -7 0 -8 -8 -10 -21 -7 -15 4 -18 2 -10 -7 8 -9 7 -13 -4
-13 -7 0 -13 3 -12 6 1 3 -2 7 -7 8 -5 1 -13 7 -17 15 -5 8 -9 9 -9 2 0 -7 -8
-15 -17 -18 -40 -14 -65 -34 -51 -40 11 -5 11 -7 0 -12 -10 -5 -9 -9 5 -20 17
-13 17 -14 -2 -8 -16 6 -18 5 -7 -7 6 -7 12 -20 11 -29 0 -13 -2 -13 -11 1
-16 23 -54 5 -62 -27 -4 -13 -11 -24 -16 -24 -5 0 -14 -10 -21 -22 -10 -18 -9
-20 5 -15 9 4 16 2 16 -4 0 -16 -34 -6 -38 11 -1 8 9 27 23 42 29 32 30 34 9
42 -9 3 -12 2 -9 -5 8 -12 -14 -41 -25 -34 -4 3 -8 -1 -7 -8 0 -6 -1 -25 -1
-40 -2 -25 -4 -27 -17 -13 -17 17 -20 41 -4 30 8 -4 8 -1 2 12 -6 11 -7 30 -2
44 6 21 7 22 8 5 2 -16 6 -12 21 15 11 19 19 31 20 26 0 -5 7 -3 15 4 8 7 25
10 37 7 20 -5 21 -5 6 7 -15 11 -14 15 9 45 14 17 23 35 19 38 -3 4 -6 1 -6
-6 0 -7 -4 -10 -10 -6 -5 3 -18 -3 -29 -14 -11 -11 -22 -17 -24 -14 -3 2 -8
-5 -12 -16 -7 -23 -35 -29 -35 -8 -1 19 -17 -14 -25 -52 -7 -31 -41 -78 -51
-68 -2 2 2 10 11 17 25 20 18 27 -26 25 -35 -2 -40 0 -38 19 1 11 -1 29 -5 38
-4 9 -4 22 0 29 4 8 3 9 -4 5 -7 -4 -12 -13 -12 -20 0 -8 -8 -16 -18 -18 -15
-4 -18 1 -19 29 -1 18 -8 44 -16 56 -8 12 -13 31 -11 41 1 11 -2 27 -7 35 -8
13 -9 11 -4 -6 3 -12 1 -24 -5 -28 -5 -3 -10 0 -10 8 0 8 -6 20 -14 27 -8 6
-12 18 -9 27 5 13 3 14 -16 4 -21 -12 -22 -11 -15 23 5 30 4 35 -9 31 -17 -7
-31 21 -15 31 7 4 7 9 -1 13 -6 4 -12 24 -13 44 -1 20 -6 35 -12 34 -6 -1 -10
6 -10 16 1 9 -2 17 -7 17 -5 0 -9 16 -9 35 0 26 -3 33 -15 29 -17 -7 -19 4 -6
39 8 19 6 27 -5 31 -8 3 -14 11 -14 17 0 8 4 8 15 -1 8 -7 15 -8 15 -3 0 10
-43 33 -60 33 -6 0 -10 -9 -10 -20 0 -21 -15 -27 -25 -10 -10 16 -23 12 -35
-11 -10 -17 -8 -24 10 -39 23 -20 19 -43 -5 -33 -8 3 -15 0 -15 -7 0 -6 9 -14
20 -17 22 -6 26 -33 8 -51 -8 -8 -8 -15 2 -27 7 -8 10 -24 7 -36 -3 -12 0 -22
9 -26 8 -3 13 -12 10 -19 -3 -8 1 -14 9 -14 8 0 15 -9 15 -20 0 -10 10 -24 21
-31 17 -9 20 -17 16 -46 -5 -28 -3 -32 7 -24 18 15 27 2 14 -22 -9 -17 -8 -19
6 -14 27 11 31 -21 7 -54 -17 -23 -19 -33 -11 -48 14 -26 13 -31 -5 -25 -19 8
-19 -3 -1 -21 17 -18 26 -9 26 27 0 15 4 28 10 28 5 0 10 -26 10 -57 1 -32 1
-75 1 -96 0 -30 4 -37 19 -37 12 0 26 -13 36 -32 9 -18 25 -39 35 -46 11 -7
19 -25 19 -40 0 -20 3 -23 12 -14 9 9 16 8 30 -5 22 -20 23 -35 2 -31 -10 2
-19 -3 -22 -11 -3 -10 0 -12 11 -8 10 4 16 -2 19 -17 4 -19 1 -21 -24 -18 -21
3 -28 0 -28 -12 0 -18 -21 -21 -37 -5 -8 8 -11 1 -11 -26 0 -34 2 -36 31 -33
20 2 31 -2 34 -12 4 -13 3 -13 -6 0 -5 8 -14 11 -18 6 -4 -4 1 -14 11 -22 12
-9 24 -10 29 -5 5 5 16 7 23 4 10 -4 11 -10 3 -25 -7 -12 -7 -18 -1 -14 5 3
13 -1 16 -10 9 -24 8 -26 -14 -14 -16 8 -20 8 -20 -3 0 -19 24 -39 35 -29 5 4
5 -1 2 -10 -4 -10 -2 -18 2 -18 11 0 33 -59 26 -70 -3 -4 3 -7 12 -6 9 0 22
-9 29 -22 6 -13 14 -23 18 -23 20 2 26 -1 26 -14 0 -8 5 -15 11 -15 5 0 8 -4
5 -9 -3 -5 3 -11 15 -14 16 -4 19 -2 14 16 -6 21 -6 21 9 3 9 -10 13 -23 10
-28 -9 -15 6 -46 26 -51 21 -6 44 -50 42 -82 -2 -19 -1 -19 6 -1 7 17 10 16
34 -13 27 -32 44 -83 33 -101 -3 -5 3 -10 14 -10 12 0 21 -3 21 -7 0 -5 16
-19 35 -32 19 -13 35 -30 35 -38 0 -8 7 -21 15 -29 17 -18 20 -54 4 -54 -5 0
-8 -4 -5 -9 3 -5 15 -7 26 -4 11 3 20 0 20 -6 0 -6 -4 -11 -9 -11 -11 0 -3
-39 12 -57 6 -9 6 -13 -3 -13 -9 0 -8 -7 4 -25 9 -13 16 -34 16 -45 0 -12 4
-19 9 -16 5 4 12 -8 16 -25 5 -23 10 -28 16 -18 7 11 11 10 23 -6 8 -11 13
-22 11 -26 -2 -3 11 -13 30 -22 20 -10 35 -12 35 -6 0 5 13 15 30 20 16 6 29
14 29 17 -1 4 -1 15 0 25 1 14 4 15 15 5 7 -7 13 -19 12 -28 -1 -10 7 -15 24
-14 38 2 42 3 36 12 -3 5 1 9 9 9 8 0 13 -2 10 -5 -2 -2 6 -12 18 -22 21 -17
22 -17 34 0 12 16 51 21 73 10 3 -2 16 -4 30 -5 90 -7 151 -20 195 -42 l50
-24 -42 6 c-24 4 -43 3 -43 -2 0 -4 23 -9 51 -11 28 -2 66 -12 84 -22 20 -11
37 -15 40 -10 10 16 22 11 28 -10 3 -12 -1 -23 -10 -28 -11 -7 -6 -17 26 -49
32 -31 52 -42 87 -48 38 -5 43 -9 33 -21 -6 -8 -19 -14 -28 -14 -13 0 -14 -2
-2 -9 10 -7 24 -3 42 10 29 20 79 26 79 9 0 -5 20 -10 45 -10 25 0 45 -4 45
-10 0 -5 -12 -10 -27 -10 -16 0 -37 -7 -48 -16 -18 -13 -17 -14 14 -8 25 5 32
4 27 -4 -7 -12 10 -17 52 -13 14 1 22 -3 21 -11 -2 -12 2 -28 21 -73 24 -57
30 -88 20 -101 -8 -8 -8 -14 1 -19 8 -6 8 -9 -1 -15 -6 -4 -15 -34 -19 -66 -4
-33 -11 -66 -16 -74 -19 -29 -35 -85 -35 -122 0 -21 -4 -38 -10 -38 -5 0 -10
-5 -10 -11 0 -5 4 -7 10 -4 5 3 8 0 5 -7 -8 -22 8 -36 45 -40 30 -3 35 -6 32
-27 -3 -16 1 -22 10 -18 7 2 21 0 31 -5 20 -10 100 -12 140 -2 20 5 27 3 27
-9 0 -16 50 -30 74 -21 7 3 17 19 22 36 9 32 66 74 85 63 16 -11 10 7 -8 20
-11 8 -13 14 -5 19 7 4 12 2 12 -3 0 -6 5 -11 10 -11 6 0 10 10 10 23 0 15 3
18 9 9 6 -10 18 -3 50 27 24 23 49 41 56 41 7 0 24 13 37 28 25 30 83 49 94
31 3 -6 19 -9 34 -5 22 4 29 1 33 -15 3 -12 10 -18 16 -14 6 3 11 1 11 -4 0
-6 9 -11 20 -11 25 0 26 -17 3 -23 -11 -3 -6 -5 11 -6 20 -1 27 -5 23 -16 -4
-8 -2 -17 3 -20 6 -4 10 0 10 7 1 7 7 -4 15 -26 7 -21 11 -45 8 -52 -8 -21 3
-17 33 11 15 14 32 25 38 24 6 0 6 -3 -1 -6 -7 -2 -13 -14 -13 -25 0 -18 1
-18 16 -4 16 17 54 22 54 8 0 -4 -6 -14 -12 -21 -11 -10 -9 -14 5 -22 15 -9
16 -12 2 -25 -16 -17 -20 -34 -7 -34 5 0 17 9 27 20 16 18 20 19 27 5 6 -10 4
-20 -4 -28 -24 -22 -59 -38 -68 -32 -6 4 -10 1 -10 -4 0 -6 -7 -11 -16 -11 -9
0 -37 -11 -64 -24 -61 -31 -292 -110 -395 -135 -240 -58 -490 -85 -730 -78
-279 8 -459 48 -718 162 -236 104 -375 216 -416 335 -19 56 -41 181 -41 234 0
34 -4 47 -13 44 -6 -3 -36 -13 -65 -23 -54 -17 -123 -78 -287 -256 -28 -30
-80 -71 -116 -92 -36 -21 -94 -65 -129 -97 -36 -33 -117 -96 -180 -142 -63
-45 -162 -117 -220 -160 -58 -43 -110 -81 -115 -85 -19 -14 -99 -86 -195 -174
-128 -118 -164 -149 -172 -149 -5 0 -8 -4 -8 -10 0 -7 1292 -10 3855 -10
l3855 0 0 528 0 527 -72 36 c-40 20 -113 57 -163 83 -53 27 -130 57 -188 71
-103 27 -229 74 -537 205 -102 43 -252 104 -335 135 -155 58 -257 105 -282
131 -9 8 -41 28 -72 45 -31 16 -69 38 -86 49 -16 10 -48 19 -71 19 -28 1 -55
11 -87 31 -25 17 -68 34 -95 39 -34 5 -63 19 -93 43 -70 57 -82 60 -167 53
-42 -4 -85 -12 -94 -17 -13 -6 -31 -2 -63 17 -56 31 -98 57 -105 66 -3 3 -24
20 -48 36 -68 49 -182 153 -243 220 -101 112 -162 281 -220 613 -14 79 -17
260 -5 320 4 19 9 45 12 58 2 13 8 20 13 18 12 -8 28 64 37 162 3 45 10 82 13
82 4 0 5 26 3 59 -3 36 0 61 7 65 8 5 7 15 -3 34 -15 30 -20 155 -5 147 5 -4
6 1 3 9 -4 11 0 16 10 16 15 0 23 33 16 65 -1 5 2 7 5 3 4 -4 26 16 48 44 34
42 41 58 41 97 1 25 -5 65 -13 88 -12 38 -12 45 1 60 22 25 78 148 78 171 0
10 4 22 9 27 5 6 16 64 25 130 9 66 24 161 34 210 18 96 21 315 8 575 -11 215
-12 222 -54 250 -30 19 -51 24 -107 24 l-70 1 2 39 c2 22 10 50 19 63 9 15 13
35 9 51 -3 15 -1 60 5 99 7 49 6 104 -1 180 -6 59 -11 136 -10 171 1 50 -3 68
-19 89 -11 14 -20 41 -20 59 0 19 -4 34 -8 34 -17 0 -34 93 -30 162 6 71 0 99
-33 174 -10 23 -21 59 -25 80 -3 22 -24 76 -45 122 -22 46 -39 91 -39 101 0
10 -11 39 -25 65 -14 26 -25 52 -25 59 0 7 -28 59 -63 117 -34 58 -71 131 -80
162 -12 38 -24 59 -37 63 -23 7 -44 41 -35 55 3 5 1 18 -5 30 -5 11 -14 29
-20 40 -5 11 -10 28 -10 37 0 22 -65 87 -79 79 -10 -7 -71 61 -71 79 0 6 -16
29 -35 51 -19 21 -35 43 -35 48 0 4 -6 6 -14 3 -8 -3 -22 0 -33 8 -10 8 -30
11 -45 8 -23 -5 -30 0 -48 30 -18 30 -29 39 -60 45 -3 0 -31 12 -63 26 -32 15
-71 26 -86 26 -16 0 -31 4 -33 9 -6 15 -88 62 -98 56 -6 -4 -17 1 -26 9 -8 9
-27 16 -42 16 -14 0 -44 9 -66 19 -23 10 -68 26 -101 36 -33 9 -73 23 -88 31
-16 8 -37 14 -48 14 -26 0 -99 23 -99 32 0 3 -19 9 -42 13 -24 4 -55 14 -70
21 -15 8 -38 14 -51 14 -14 0 -45 9 -71 20 -39 18 -54 19 -98 11 -28 -5 -57
-7 -62 -6 -30 9 -176 12 -206 4z m1350 -3234 c9 -10 9 -15 1 -15 -6 0 -11 -5
-11 -11 0 -8 5 -7 15 1 9 7 14 19 11 27 -6 15 20 18 29 3 5 -7 11 -8 18 -1 16
13 47 -10 48 -35 0 -18 1 -18 9 1 8 18 9 18 9 2 1 -10 6 -15 12 -12 6 4 17 -3
26 -15 8 -12 21 -19 29 -16 20 8 17 -4 -6 -24 -20 -18 -12 -38 10 -25 6 3 10
1 10 -4 0 -6 -5 -11 -10 -11 -6 0 -3 -11 6 -25 19 -28 12 -44 -10 -26 -11 10
-14 5 -18 -29 -2 -29 0 -40 10 -40 9 0 11 -7 7 -20 -4 -11 -2 -20 4 -20 6 0
11 -5 11 -12 0 -9 -3 -9 -12 0 -7 7 -21 12 -32 11 -13 0 -16 -3 -7 -6 13 -5
51 -40 51 -47 0 -2 -16 -2 -35 0 -26 2 -36 -2 -40 -17 -9 -27 -22 -24 -27 6
-5 23 6 36 14 16 2 -5 12 -3 22 5 19 13 19 14 -6 14 -41 0 -56 -9 -51 -31 6
-21 -7 -25 -24 -8 -8 8 -13 8 -17 0 -4 -6 -2 -11 3 -11 6 0 11 -4 11 -9 0 -4
-12 -8 -27 -7 -19 1 -29 7 -33 23 -3 15 -9 20 -18 14 -15 -9 -62 -2 -62 9 0 4
-16 4 -35 0 -20 -4 -35 -4 -35 1 0 5 -7 9 -16 9 -12 0 -14 4 -7 13 19 24 23
47 8 47 -9 0 -12 -6 -8 -16 4 -12 2 -15 -8 -12 -8 3 -14 16 -15 29 0 13 -4 25
-10 26 -5 2 -9 -19 -8 -47 0 -27 -3 -47 -8 -44 -4 3 -8 21 -8 40 0 24 -5 34
-15 34 -11 0 -15 11 -13 48 l1 47 4 -42 c5 -56 20 -55 25 2 2 31 -1 46 -10 50
-23 9 -6 30 24 30 21 0 30 5 32 20 3 11 11 24 19 29 13 7 13 10 2 17 -10 6 -4
12 23 23 20 9 41 22 45 29 16 28 74 35 93 12z"/>
<path d="M3977 6148 c7 -8 10 -18 6 -21 -3 -4 1 -7 10 -7 10 0 17 -4 17 -9 0
-5 9 -13 21 -16 11 -4 18 -9 16 -12 -3 -2 -19 3 -36 11 -16 9 -41 16 -55 16
-14 0 -28 5 -31 10 -3 6 -19 10 -35 10 -16 0 -32 5 -35 10 -8 13 -55 13 -55 1
0 -5 10 -12 23 -14 12 -2 -5 -5 -38 -6 -34 0 -65 -5 -70 -10 -6 -5 -28 -12
-50 -15 -22 -3 -34 -3 -27 0 25 12 -7 34 -40 27 -19 -4 -33 -1 -38 7 -8 13
-125 21 -164 12 -18 -5 -17 -6 5 -15 l24 -10 -22 -4 c-13 -3 -23 -7 -23 -11 0
-4 -11 -8 -25 -8 l-25 -2 23 19 22 18 -23 -6 c-27 -7 -48 -39 -29 -46 7 -3 5
-6 -5 -6 -21 -1 -70 -45 -61 -54 11 -11 23 -8 21 6 -2 6 5 11 14 9 10 -1 28 4
41 13 13 8 27 12 32 8 4 -5 5 0 2 10 -6 15 -2 18 16 15 14 -2 22 -10 22 -23 0
-16 7 -20 35 -22 28 -2 31 -1 15 7 l-20 9 20 0 c11 1 35 -8 53 -19 18 -11 48
-20 67 -20 19 0 35 -4 35 -10 0 -5 7 -7 15 -4 11 4 13 2 10 -9 -4 -8 1 -17 12
-21 10 -4 19 -3 21 3 2 6 13 4 27 -5 36 -23 374 -27 360 -4 -4 7 54 5 113 -5
36 -5 38 -3 16 20 -9 9 -14 19 -11 22 3 3 13 -2 22 -11 21 -21 24 -20 18 4 -3
11 -9 20 -13 20 -5 0 -13 12 -18 28 -7 18 -11 21 -11 9 -1 -10 -6 -15 -11 -12
-6 4 -8 10 -5 15 3 4 -4 19 -16 31 -15 18 -19 19 -15 7 8 -27 -13 -21 -26 7
-6 14 -15 25 -20 25 -5 0 -6 5 -2 12 4 7 3 8 -5 4 -6 -4 -9 -12 -6 -17 11 -17
-15 -9 -58 18 -23 14 -36 20 -30 11z"/>
<path d="M3868 5853 c-19 -5 -24 -18 -10 -26 4 -2 1 -2 -5 -1 -7 2 -13 -1 -13
-7 0 -6 -5 -7 -11 -3 -6 3 -14 2 -18 -4 -3 -5 -19 -13 -36 -16 -67 -12 -221
-46 -234 -51 -27 -10 -5 -13 39 -5 121 22 149 22 176 1 23 -18 24 -21 8 -21
-11 0 -27 -13 -36 -30 -12 -21 -25 -30 -43 -30 -42 0 -232 -89 -293 -138 -49
-39 -79 -89 -63 -105 7 -7 16 -5 31 8 11 10 20 14 20 10 0 -4 9 0 20 10 15 14
20 15 20 4 1 -8 6 -5 13 8 20 35 108 94 148 98 15 2 19 -20 6 -41 -10 -17 25
-77 53 -91 29 -15 118 -17 172 -4 28 6 38 5 42 -5 3 -9 0 -11 -11 -7 -12 5
-15 2 -10 -9 3 -10 0 -19 -9 -22 -8 -3 -17 1 -21 10 -5 13 -8 13 -22 1 -9 -8
-25 -17 -36 -22 l-20 -7 20 -8 c11 -4 25 -3 32 2 17 14 37 0 23 -17 -6 -7 -8
-19 -5 -27 5 -13 -11 -27 -30 -27 -9 -1 -51 -45 -57 -62 -5 -13 0 -16 31 -13
49 4 185 41 236 63 22 10 59 26 83 36 23 10 42 21 42 26 0 4 13 10 29 14 16 3
33 16 39 30 7 14 18 25 27 25 11 0 14 8 10 35 -2 21 0 35 7 35 15 0 1 63 -17
73 -8 4 -15 17 -15 27 0 16 4 18 23 11 32 -12 51 -3 36 16 -10 12 -10 16 2 24
10 6 11 9 1 9 -10 0 -10 5 -2 20 14 26 9 63 -12 84 -10 9 -15 22 -12 30 5 14
-23 43 -33 32 -3 -3 -17 1 -31 10 -13 9 -36 17 -50 19 -49 7 -74 14 -86 23
-16 14 -85 9 -95 -6 -7 -11 -9 -11 -14 2 -7 16 -9 17 -39 9z"/>
<path d="M3834 4542 c-6 -4 -14 -14 -18 -22 -27 -57 -54 -99 -59 -93 -4 3 -7
0 -7 -7 0 -7 -6 -21 -13 -29 -17 -20 -37 -90 -37 -129 0 -17 -5 -34 -11 -37
-6 -4 -8 -14 -5 -22 3 -8 1 -11 -4 -8 -6 3 -10 1 -10 -4 0 -6 7 -11 15 -11 8
0 15 7 15 16 0 8 4 13 9 10 11 -7 44 41 36 54 -3 5 4 11 15 15 11 3 20 15 20
26 0 10 6 19 13 19 15 1 66 73 71 103 3 12 5 23 7 25 1 1 2 5 4 10 1 4 5 15
10 25 4 10 3 29 -3 43 -12 24 -28 30 -48 16z"/>
<path d="M2990 4083 c-50 -16 -61 -27 -55 -55 5 -20 2 -30 -8 -34 -8 -3 -17
-15 -20 -26 -3 -11 -9 -18 -14 -15 -4 3 -9 -5 -9 -16 -1 -12 -5 -33 -9 -47 -4
-17 -4 -21 3 -12 5 8 20 12 33 10 19 -2 24 -9 24 -33 1 -16 4 -38 9 -47 9 -19
36 -25 36 -8 0 5 5 9 11 8 6 -2 15 6 19 17 7 18 4 21 -23 20 -22 0 -33 5 -35
17 -3 13 1 16 14 11 12 -4 15 -3 10 5 -5 8 0 12 13 12 24 0 28 18 6 26 -10 4
-12 11 -6 22 16 32 34 153 22 151 -3 0 -13 -3 -21 -6z"/>
</g>
</svg>
