<svg viewBox="0 0 1025 141" xmlns="http://www.w3.org/2000/svg" fill-rule="evenodd" clip-rule="evenodd" stroke-linejoin="round" stroke-miterlimit="2"><path d="M17.91 67.44H32.46c4.475 0 8.115-1.12 10.632-3.358 2.518-2.24 3.638-5.598 3.638-9.515 0-4.197-1.12-7.275-3.638-9.795-2.24-2.237-5.877-3.637-10.912-3.637H17.91v26.304zM32.18 81.99H17.91v31.899H0V26.586h32.461c10.352 0 18.187 2.237 23.784 6.994 5.598 4.478 8.395 11.192 8.395 19.587 0 5.877-1.397 10.915-3.917 14.832-2.52 3.917-6.438 7.275-11.755 9.515l19.03 35.816v.84h-19.31L32.181 81.99zM100.459 101.858c2.517 0 5.037-.56 6.997-1.68 2.238-1.118 3.638-2.798 4.755-4.478V84.508h-6.435c-8.674 0-13.432 3.078-13.992 8.955v1.117c0 2.24.84 3.92 2.238 5.318 1.4 1.4 3.92 1.96 6.437 1.96m14.272 12.312c-.84-1.68-1.4-3.638-1.68-5.878-4.197 4.758-9.795 6.998-16.51 6.998-6.434 0-11.751-1.96-15.949-5.598-4.197-3.637-6.157-8.394-6.157-13.992 0-6.994 2.52-12.312 7.555-15.949 5.037-3.637 12.592-5.597 22.106-5.597h8.115v-3.638c0-3.077-.837-5.317-2.237-7.274-1.68-1.68-3.918-2.8-7.278-2.8-2.797 0-5.314.56-6.994 2.24-1.68 1.677-2.518 3.357-2.518 5.877h-17.35c0-3.64 1.12-7.277 3.358-10.355 2.24-3.077 5.598-5.597 9.795-7.554 4.197-1.96 8.955-2.8 14.27-2.8 8.117 0 14.271 1.96 19.029 6.157 4.757 4.197 6.997 9.795 6.997 17.07v28.26c0 6.158.837 10.915 2.517 13.993v1.12h-17.07v-.28zM178.251 95.983c0-2.24-1.117-3.917-3.077-5.037-2.24-1.12-5.598-2.24-10.075-3.358-15.39-3.36-23.227-9.794-23.227-19.589 0-5.875 2.52-10.632 7.278-14.55 4.757-3.917 10.912-5.877 18.749-5.877 8.115 0 14.83 1.96 19.867 5.878 5.037 3.917 7.554 8.954 7.554 15.11h-17.346c0-2.52-.84-4.478-2.52-6.156-1.68-1.68-4.198-2.52-7.555-2.52-2.8 0-5.317.56-6.717 1.96-1.678 1.398-2.518 3.078-2.518 5.035 0 1.96.84 3.36 2.798 4.76 1.957 1.397 5.037 2.237 9.234 3.077 4.198.838 7.835 1.958 10.912 2.798 9.235 3.357 13.712 9.234 13.712 17.35 0 5.876-2.517 10.631-7.554 14.271-5.038 3.637-11.752 5.595-19.587 5.595-5.317 0-10.355-.838-14.552-2.798-4.197-1.957-7.555-4.477-10.075-8.114-2.517-3.358-3.637-6.998-3.637-10.912h16.51c.28 3.077 1.4 5.314 3.36 6.994 2.237 1.68 5.034 2.518 8.394 2.518 3.357 0 5.875-.558 7.555-1.958 1.68-.56 2.517-2.24 2.517-4.477M247.648 80.871c0-6.157-1.117-10.635-3.077-13.992-2.24-3.357-5.317-5.037-9.235-5.037-5.317 0-9.234 1.96-11.192 6.157v26.584c2.238 4.197 5.875 6.435 11.472 6.435 7.835.28 12.032-6.435 12.032-20.147m17.35 1.397c0 10.075-2.238 17.91-6.715 24.067-4.477 6.155-10.635 8.955-18.47 8.955-6.437 0-11.751-2.24-15.949-6.718v30.502h-17.349V48.97h16.23l.56 6.437c4.197-5.037 9.791-7.557 16.509-7.557 8.114 0 14.272 3.077 18.75 8.957 4.474 5.875 6.714 13.99 6.714 24.621v.84h-.28zM316.766 80.871c0-6.437-1.12-11.475-3.078-14.272-1.96-3.077-5.317-4.477-9.234-4.477-5.598 0-9.235 2.24-11.475 6.717v25.744c2.24 4.477 5.877 6.715 11.475 6.715 5.594 0 9.234-2.798 11.192-8.395.84-2.52 1.12-6.715 1.12-12.032m17.35 1.397c0 10.355-2.238 18.47-6.718 24.347-4.478 5.875-10.632 8.675-18.747 8.675-6.997 0-12.595-2.8-16.79-8.115l-.84 6.995H275.35V21.826h17.352v33.021c3.914-4.757 9.232-6.997 15.67-6.997 7.834 0 14.271 2.8 18.746 8.677 4.48 5.875 6.717 13.99 6.717 24.621v1.12h.28zM373.011 61.842c-3.357 0-6.157 1.117-8.394 3.637-2.24 2.52-3.638 5.597-4.198 10.075h24.064v-1.4c0-3.918-1.12-6.715-3.077-8.955-1.957-2.24-4.757-3.357-8.395-3.357m1.958 53.445c-9.512 0-17.347-2.797-23.224-8.672-5.878-5.877-8.955-13.712-8.955-23.507v-1.68c0-6.434 1.397-12.312 3.917-17.629 2.52-5.035 6.158-9.235 10.635-12.032 4.757-2.797 9.792-4.197 15.95-4.197 8.954 0 15.949 2.8 20.986 8.394 5.037 5.598 7.555 13.432 7.555 23.787v6.995h-41.414c.56 4.197 2.238 7.554 5.038 10.354 2.797 2.518 6.434 3.918 10.632 3.918 6.717 0 12.034-2.518 15.672-7.278l8.394 9.515c-2.52 3.64-6.157 6.437-10.634 8.675-4.198 2.24-9.235 3.357-14.552 3.357M448.003 65.482c-2.237-.28-4.477-.56-6.157-.56-6.435 0-10.912 2.237-12.872 6.717v42.533h-17.35v-65.2h16.513l.557 7.835c3.36-5.877 8.397-8.955 14.552-8.955 1.96 0 3.637.28 5.317.84l-.56 16.79zM492.777 65.482c-2.238-.28-4.478-.56-6.158-.56-6.434 0-10.912 2.237-12.869 6.717v42.533h-17.352v-65.2h16.512l.56 7.835c3.357-5.877 8.395-8.955 14.55-8.955 1.96 0 3.64.28 5.317.84l-.56 16.79zM526.635 89.546l12.032-40.296h18.75l-26.024 74.994-1.4 3.358c-3.918 8.394-10.355 12.872-19.307 12.872-2.52 0-5.037-.28-7.555-1.12v-13.15h2.518c3.357 0 5.874-.56 7.274-1.4 1.68-1.12 2.8-2.8 3.918-5.037l1.96-5.317-22.667-65.2h18.75l11.751 40.296zM613.942 68.56h16.23c4.757 0 8.394-1.12 10.914-3.358 2.518-2.24 3.638-5.318 3.638-9.515 0-4.197-1.4-7.837-3.918-10.355-2.52-2.517-5.877-3.917-10.354-4.197h-16.51v27.424zm0 14.831v30.779h-17.91V26.586h34.14c6.437 0 12.314 1.117 17.349 3.637 5.037 2.517 8.955 5.875 11.475 10.352 2.797 4.477 3.917 9.515 3.917 15.112 0 8.675-2.8 15.39-8.675 20.147-5.877 5.037-13.992 7.557-24.346 7.557h-15.95zM692.294 114.17h-17.35v-65.2h17.35v65.2zm-18.47-81.99c0-2.517.84-4.757 2.518-6.434 1.68-1.68 4.2-2.52 6.998-2.52 3.077 0 5.317.84 6.997 2.52 1.677 1.677 2.517 3.917 2.517 6.434 0 2.52-.84 4.758-2.797 6.438-1.68 1.677-4.2 2.517-6.997 2.517-2.798 0-5.318-.84-6.998-2.517-1.397-1.68-2.237-3.638-2.237-6.438M779.881 72.196h22.387c7.274 0 12.592-1.677 16.51-5.037 3.636-3.357 5.596-8.115 5.596-14.27 0-6.157-1.96-10.914-5.597-14.551-3.637-3.638-8.955-5.318-15.952-5.595h-22.944v39.453zm0 6.158v35.538h-7.277V26.586h29.664c8.954 0 16.23 2.237 21.546 6.994 5.318 4.758 7.835 10.915 7.835 19.03 0 8.114-2.517 14.55-7.555 19.03-5.037 4.474-12.314 6.714-22.106 6.714H779.88zM854.593 114.17h-7.275v-65.2h7.275v65.2zm-8.395-83.95c0-1.397.56-2.517 1.4-3.357.84-.837 1.96-1.397 3.638-1.397 1.68 0 2.797.56 3.637 1.397.84.84 1.4 1.96 1.4 3.357 0 1.4-.56 2.52-1.4 3.36-.84.84-2.237 1.4-3.637 1.4-1.398 0-2.798-.56-3.638-1.4-.84-.84-1.4-1.96-1.4-3.36M898.247 109.132c5.037 0 9.234-1.397 12.592-4.197 3.357-2.797 5.317-6.435 5.597-10.915h6.995c-.28 3.92-1.4 7.558-3.638 10.915-2.237 3.357-5.317 5.877-9.234 7.555-3.918 1.96-7.835 2.8-12.032 2.8-8.395 0-15.392-3.08-20.147-8.955-5.038-5.877-7.558-13.992-7.558-23.787v-2.237c0-6.437 1.12-12.032 3.36-17.07 2.238-5.037 5.595-8.674 9.513-11.474 4.197-2.797 8.954-3.917 14.552-3.917 6.997 0 12.872 2.24 17.629 6.437 4.757 4.197 6.995 9.792 7.555 16.79h-6.995c-.28-5.038-2.24-9.235-5.597-12.313-3.358-3.077-7.555-4.757-12.592-4.757-6.438 0-11.472 2.237-15.112 6.995-3.638 4.757-5.315 11.192-5.315 19.59v2.236c0 8.395 1.677 14.832 5.315 19.307 3.36 4.76 8.674 6.997 15.112 6.997M940.78 82.551c0 7.835 1.957 14.272 6.157 19.03 3.915 5.034 9.232 7.554 15.95 7.554 6.434 0 11.752-2.52 15.669-7.555 3.917-5.037 6.157-11.474 6.157-19.869v-1.397c0-5.04-.84-9.515-2.8-13.712-1.957-4.198-4.474-7.275-7.834-9.515-3.358-2.24-6.995-3.357-11.472-3.357-6.438 0-11.755 2.517-15.67 7.554-3.92 5.038-6.157 11.472-6.157 19.867v1.4zm-7.277-1.957c0-6.158 1.12-11.755 3.64-16.792 2.517-5.035 5.874-8.955 10.354-11.752 4.475-2.798 9.512-4.198 15.11-4.198 8.674 0 15.669 3.078 20.986 9.235 5.318 6.155 8.115 13.992 8.115 24.064v1.4c0 6.157-1.12 12.032-3.637 17.07-2.518 5.037-5.878 8.954-10.352 11.751-4.48 2.8-9.515 4.198-15.112 4.198-8.675 0-15.67-3.078-20.987-9.235-5.317-6.155-8.117-13.99-8.117-24.064v-1.677z" fill="#1e1e1e" fill-rule="nonzero"/><path d="M767.009 7.836c-13.712 0-24.624 11.192-24.624 24.624v74.995c0 13.712 11.192 24.624 24.624 24.624h224.982c13.712 0 24.626-11.192 24.626-24.624V32.46c0-13.712-11.194-24.624-24.626-24.624H767.009zm225.262 132.078H767.289c-17.91 0-32.459-14.55-32.459-32.459V32.46c0-17.906 14.55-32.458 32.459-32.458h224.982c17.909 0 32.461 14.552 32.461 32.458v74.995c0 17.91-14.552 32.459-32.461 32.459" fill="#c31c4a" fill-rule="nonzero"/></svg>